<?xml version="1.0" encoding="iso-8859-1"?>
<!-- Generator: Adobe Illustrator 19.0.0, SVG Export Plug-In . SVG Version: 6.00 Build 0)  -->
<svg version="1.1" id="Layer_1" xmlns="http://www.w3.org/2000/svg" xmlns:xlink="http://www.w3.org/1999/xlink" x="0px" y="0px"
	 viewBox="0 0 511.998 511.998" style="enable-background:new 0 0 511.998 511.998;" xml:space="preserve">
<g>
	<g>
		<path d="M415.148,230.381c-11.885,0-23.274,2.157-33.805,6.092l-4.797-10.256c39.533-15.047,84.896-5.641,115.071,24.545
			l11.084-11.081c-34.823-34.834-87.301-45.491-132.808-27.682l-14.989-32.046l21.827-46.81h47.87v-7.837
			c0-10.713-4.604-20.927-12.632-28.022c-8.028-7.095-18.729-10.404-29.364-9.093l-49.372,6.115
			c-9.748,1.207-17.098,9.523-17.098,19.345c0,10.748,8.745,19.493,19.493,19.493h23.809l-18.175,38.977h-26.467v-16.184H202.015
			v16.184h-24.183l13.131-28.16c2.702-5.798,2.263-12.479-1.173-17.872c-3.439-5.396-9.314-8.617-15.716-8.617h-58.341
			c-16.416,0-29.772,13.351-29.772,29.761c0,7.959,3.095,15.437,8.723,21.065c5.63,5.615,13.105,8.707,21.048,8.707h29.132V161.33
			h-29.132c-3.765,0-7.31-1.467-9.974-4.124c-2.659-2.659-4.124-6.203-4.124-9.975c0-7.768,6.325-14.087,14.099-14.087h58.341
			c1.416,0,2.173,0.857,2.498,1.367c0.324,0.509,0.78,1.553,0.185,2.827l-46.209,99.097c-10.499-3.909-21.852-6.05-33.697-6.05
			C43.447,230.386,0,273.833,0,327.237c0,53.405,43.448,96.852,96.852,96.852s96.852-43.448,96.852-96.852
			c0-35.995-19.739-67.463-48.96-84.157l5.723-12.272l95.907,80.484c-2.304,4.648-3.606,9.876-3.606,15.406
			c0,16.5,11.543,30.345,26.974,33.911v12.74h-8.348v15.673h24.021v-28.414c12.731-2.941,22.81-12.879,25.949-25.535h7.25
			c4.003,49.754,45.768,89.015,96.533,89.015c53.405,0,96.852-43.448,96.852-96.852C512,273.828,468.552,230.381,415.148,230.381z
			 M335.632,117.467c-2.107,0-3.82-1.713-3.82-3.818c0-1.924,1.44-3.554,3.35-3.79l49.374-6.115c0.89-0.111,1.781-0.165,2.668-0.165
			c5.268,0,10.399,1.918,14.39,5.446c2.633,2.327,4.633,5.233,5.874,8.442H335.632z M153.754,327.233
			c0,31.375-25.526,56.902-56.901,56.902c-31.375,0-56.901-25.526-56.901-56.902c0-31.375,25.526-56.902,56.901-56.902
			c5.816,0,11.43,0.881,16.719,2.51L99.35,303.341c-0.822-0.085-1.655-0.13-2.498-0.13c-13.245,0-24.021,10.776-24.021,24.021
			c0,13.245,10.776,24.021,24.021,24.021s24.021-10.776,24.021-24.021c0-6.764-2.814-12.879-7.328-17.249l14.217-30.488
			C143.388,289.649,153.754,307.248,153.754,327.233z M105.199,327.233c0,4.603-3.745,8.348-8.348,8.348s-8.348-3.745-8.348-8.348
			s3.745-8.348,8.348-8.348S105.199,322.63,105.199,327.233z M178.03,327.233c0,44.762-36.417,81.178-81.178,81.178
			c-44.762,0-81.178-36.417-81.178-81.178s36.417-81.178,81.178-81.178c9.479,0,18.577,1.649,27.042,4.649l-3.657,7.842
			c-7.344-2.507-15.203-3.888-23.385-3.888c-40.018,0-72.574,32.557-72.574,72.576c0,40.018,32.557,72.575,72.574,72.575
			c40.017,0,72.574-32.557,72.574-72.575c0-26.268-14.028-49.321-34.985-62.062l3.648-7.822
			C161.973,271.496,178.03,297.518,178.03,327.233z M384.182,279.532l14.252,30.471c-2.673,2.593-4.744,5.8-5.987,9.392H358.8
			C361.108,302.72,370.665,288.338,384.182,279.532z M415.148,351.254c13.245,0,24.021-10.776,24.021-24.021
			c0-13.245-10.776-24.021-24.021-24.021c-0.853,0-1.695,0.046-2.526,0.134l-14.259-30.485c5.308-1.642,10.944-2.529,16.784-2.529
			c31.375,0,56.902,25.526,56.902,56.902c0,31.375-25.526,56.902-56.902,56.902c-28.716,0-52.517-21.386-56.348-49.065h33.647
			v-0.001C395.704,344.478,404.647,351.254,415.148,351.254z M406.801,327.233c0-4.603,3.745-8.348,8.348-8.348
			c4.603,0,8.348,3.745,8.348,8.348s-3.745,8.348-8.348,8.348C410.546,335.581,406.801,331.836,406.801,327.233z M373.828,257.397
			l3.658,7.82c-18.806,11.464-32.007,31.237-34.483,54.179h-8.648C336.895,293.016,352.114,270.294,373.828,257.397z
			 M217.689,171.606h81.434v16.695h-81.434V171.606z M157.325,216.097l13.198-28.306h31.492v16.184h112.781V187.79h19.16
			L285.04,292.696c-2.405-0.528-4.9-0.814-7.461-0.814c-1.022,0-2.03,0.053-3.029,0.14l-3.937-12.117l7.94-2.577l-4.838-14.909
			l-22.854,7.416l8.784,27.035c-1.159,0.699-2.27,1.469-3.335,2.295L157.325,216.097z M285.416,344.134v-16.902h-15.673v16.902
			c-6.652-3.001-11.301-9.682-11.301-17.441c0-10.552,8.585-19.137,19.137-19.137s19.137,8.585,19.137,19.137
			C296.717,334.452,292.068,341.133,285.416,344.134z M311.616,319.396c-1.72-8.025-6.213-15.028-12.424-19.962l47.077-100.958
			l20.888,44.656c-27.025,15.482-45.914,43.614-48.541,76.264H311.616z M415.148,408.411c-42.118,0-76.837-32.243-80.792-73.341
			h8.648c3.922,36.345,34.775,64.739,72.145,64.739c40.018,0,72.576-32.557,72.576-72.576c0-40.017-32.557-72.575-72.576-72.575
			c-8.212,0-16.1,1.391-23.466,3.915l-3.667-7.839c8.49-3.021,17.62-4.68,27.134-4.68c44.762,0,81.178,36.417,81.178,81.178
			C496.327,371.995,459.91,408.411,415.148,408.411z"/>
	</g>
</g>
<g>
</g>
<g>
</g>
<g>
</g>
<g>
</g>
<g>
</g>
<g>
</g>
<g>
</g>
<g>
</g>
<g>
</g>
<g>
</g>
<g>
</g>
<g>
</g>
<g>
</g>
<g>
</g>
<g>
</g>
</svg>
