<?xml version="1.0" encoding="iso-8859-1"?>
<!-- Generator: Adobe Illustrator 19.0.0, SVG Export Plug-In . SVG Version: 6.00 Build 0)  -->
<svg version="1.1" id="Layer_1" xmlns="http://www.w3.org/2000/svg" xmlns:xlink="http://www.w3.org/1999/xlink" x="0px" y="0px"
	 viewBox="0 0 496 496" style="enable-background:new 0 0 496 496;" xml:space="preserve">
<g>
	<g>
		<g>
			<path d="M0,496h496V224H0V496z M464,240h16v240h-32v-88h16V240z M432,240h16v136h-16V240z M400,240h16v152h16v88h-48v-88h16V240z
				 M368,240h16v136h-16V240z M320,240h32v152h16v88h-48V240z M272,240h32v240h-48v-88h16V240z M240,240h16v136h-16V240z M208,240
				h16v152h16v88h-48v-88h16V240z M176,240h16v136h-16V240z M144,240h16v152h16v88h-48v-88h16V240z M112,240h16v136h-16V240z
				 M64,240h32v152h16v88H64V240z M16,240h32v240H16V240z"/>
			<path d="M352,0v148.448c-4.728-2.752-10.144-4.448-16-4.448c-17.648,0-32,14.352-32,32s14.352,32,32,32s32-14.352,32-32V64h112
				v84.448c-4.728-2.752-10.144-4.448-16-4.448c-17.648,0-32,14.352-32,32s14.352,32,32,32s32-14.352,32-32V0H352z M336,192
				c-8.824,0-16-7.176-16-16c0-8.824,7.176-16,16-16c8.824,0,16,7.176,16,16C352,184.824,344.824,192,336,192z M464,192
				c-8.824,0-16-7.176-16-16c0-8.824,7.176-16,16-16c8.824,0,16,7.176,16,16C480,184.824,472.824,192,464,192z M480,48H368V16h112
				V48z"/>
			<path d="M72,16c22.68,0,49.784,15.72,75.984,30.92C176.024,63.176,205.016,80,232,80c54.224,0,70.632-35.224,71.304-36.728
				l-14.576-6.6C288.2,37.784,275.416,64,232,64c-22.68,0-49.784-15.72-75.984-30.92C127.976,16.824,98.984,0,72,0
				C17.776,0,1.368,35.224,0.696,36.728l14.576,6.6C15.8,42.216,28.584,16,72,16z"/>
			<path d="M232,192c-22.688,0-49.8-15.72-76.008-30.912c-13.384-7.76-27.208-15.776-40.688-21.88l-6.608,14.576
				c12.752,5.776,26.232,13.584,39.264,21.152C176.008,191.184,205.008,208,232,208c54.224,0,70.632-35.224,71.304-36.728
				l-14.576-6.6C288.2,165.784,275.416,192,232,192z"/>
			<path d="M72,144c6.248,0,13.296,1.288,21.552,3.936l4.888-15.232C88.584,129.536,79.936,128,72,128
				c-54.224,0-70.632,35.224-71.304,36.728l14.576,6.6C15.8,170.216,28.584,144,72,144z"/>
			<path d="M72,80c22.696,0,49.808,15.688,76.016,30.864c19.008,11,38.656,22.376,57.536,28.432l4.888-15.232
				c-17.248-5.528-36.144-16.472-54.416-27.048C127.992,80.792,98.992,64,72,64C17.776,64,1.368,99.224,0.696,100.728l14.576,6.6
				C15.8,106.216,28.584,80,72,80z"/>
			<path d="M288.728,100.672C288.2,101.784,275.416,128,232,128c-2.296,0-4.64-0.24-6.984-0.544l-2.032,15.872
				C225.44,143.64,228.68,144,232,144c54.224,0,70.632-35.224,71.304-36.728L288.728,100.672z"/>
		</g>
	</g>
</g>
<g>
</g>
<g>
</g>
<g>
</g>
<g>
</g>
<g>
</g>
<g>
</g>
<g>
</g>
<g>
</g>
<g>
</g>
<g>
</g>
<g>
</g>
<g>
</g>
<g>
</g>
<g>
</g>
<g>
</g>
</svg>
