<?xml version="1.0" encoding="iso-8859-1"?>
<!-- Generator: Adobe Illustrator 19.0.0, SVG Export Plug-In . SVG Version: 6.00 Build 0)  -->
<svg version="1.1" id="Layer_1" xmlns="http://www.w3.org/2000/svg" xmlns:xlink="http://www.w3.org/1999/xlink" x="0px" y="0px"
	 viewBox="0 0 512 512" style="enable-background:new 0 0 512 512;" xml:space="preserve">
<g>
	<g>
		<path d="M0,143.673v224.653h512V143.673H0z M158.605,352.653h-44.042v-36.571h15.677v-52.245h12.688v52.245h15.678V352.653z
			 M98.892,300.408v-36.571h15.673v36.571H98.892z M174.274,300.408h-15.673v-36.571h15.673V300.408z M218.311,352.653h-44.032
			v-36.571h15.669v-52.245h12.688v52.245h15.674V352.653z M233.983,300.408h-15.673v-36.571h15.673V300.408z M278.016,352.653
			h-44.032v-36.571h15.671v-52.245h12.688v52.245h15.672V352.653z M337.721,352.653h-44.032v-36.571h15.675v-52.245h12.688v52.245
			h15.669V352.653z M278.017,300.408v-36.571h15.673v36.571H278.017z M397.437,352.653h-44.042v-36.571h15.678v-52.245h12.688
			v52.245h15.677V352.653z M337.726,300.408v-36.571h15.673v36.571H337.726z M413.108,300.408h-15.673v-36.571h15.673V300.408z
			 M496.327,352.653h-83.216v-36.571h15.67v-52.245h28.362v75.755h15.674v-91.429H39.184v91.429h15.673v-75.755h28.362v52.245h15.67
			v36.571H15.673V159.347h480.653V352.653z"/>
	</g>
</g>
<g>
	<g>
		<path d="M195.918,169.796v67.918h120.163v-67.918H195.918z M300.408,222.041h-88.816v-36.571h88.816V222.041z"/>
	</g>
</g>
<g>
	<g>
		<path d="M106.729,169.796c-18.725,0-33.959,15.234-33.959,33.959c0,18.726,15.235,33.959,33.959,33.959
			c18.725,0,33.959-15.234,33.959-33.959C140.688,185.029,125.454,169.796,106.729,169.796z M106.729,222.041
			c-10.082,0-18.286-8.203-18.286-18.286s8.203-18.286,18.286-18.286s18.286,8.203,18.286,18.286S116.811,222.041,106.729,222.041z"
			/>
	</g>
</g>
<g>
	<g>
		<rect x="392.537" y="185.125" width="64.982" height="15.673"/>
	</g>
</g>
<g>
	<g>
		<polygon points="369.023,177.633 369.023,185.121 353.026,185.121 353.026,200.795 369.023,200.795 369.023,208.98 
			384.697,208.98 384.697,177.633 		"/>
	</g>
</g>
<g>
	<g>
		<rect x="353.029" y="216.471" width="49.957" height="15.673"/>
	</g>
</g>
<g>
	<g>
		<polygon points="426.493,216.468 426.493,208.98 410.819,208.98 410.819,240.327 426.493,240.327 426.493,232.142 
			457.516,232.142 457.516,216.468 		"/>
	</g>
</g>
<g>
</g>
<g>
</g>
<g>
</g>
<g>
</g>
<g>
</g>
<g>
</g>
<g>
</g>
<g>
</g>
<g>
</g>
<g>
</g>
<g>
</g>
<g>
</g>
<g>
</g>
<g>
</g>
<g>
</g>
</svg>
