<?xml version="1.0" encoding="iso-8859-1"?>
<!-- Generator: Adobe Illustrator 19.0.0, SVG Export Plug-In . SVG Version: 6.00 Build 0)  -->
<svg version="1.1" id="Layer_1" xmlns="http://www.w3.org/2000/svg" xmlns:xlink="http://www.w3.org/1999/xlink" x="0px" y="0px"
	 viewBox="0 0 512 512" style="enable-background:new 0 0 512 512;" xml:space="preserve">
<g>
	<g>
		<path d="M482.757,6.647c-6.204-5.29-14.381-7.586-22.429-6.296l-298.572,47.8c-17.884,2.864-30.865,18.087-30.865,36.2v67.512
			c0,5.058,4.1,9.158,9.158,9.158s9.158-4.1,9.158-9.158V84.352c0-9.063,6.495-16.68,15.443-18.113l298.572-47.8
			c2.784-0.446,5.502,0.318,7.649,2.147c2.147,1.83,3.329,4.392,3.329,7.213V363.55c-0.006,0.132-0.01,0.265-0.011,0.397
			c-0.203,37.414-30.804,67.85-68.215,67.85c-18.804,0-36.321-7.488-49.321-21.085c-12.991-13.589-19.681-31.451-18.834-50.295
			c0.2-4.459,0.845-8.908,1.918-13.222c1.221-4.909-1.769-9.878-6.678-11.097c-4.905-1.222-9.878,1.769-11.097,6.678
			c-1.365,5.49-2.187,11.149-2.442,16.82c-1.072,23.889,7.413,46.538,23.895,63.776c16.489,17.246,38.707,26.742,62.559,26.742
			c47.296,0,86.013-38.355,86.527-85.594c0.01-0.175,0.015-0.348,0.015-0.524V27.798C492.517,19.646,488.96,11.937,482.757,6.647z"
			/>
	</g>
</g>
<g>
	<g>
		<path d="M439.304,123.529c-6.204-5.29-14.381-7.582-22.428-6.295L205.21,151.12c-17.884,2.864-30.865,18.087-30.865,36.2v236.517
			c-0.07,0.464-0.103,0.937-0.1,1.412c0,0.107,0.004,0.214,0.007,0.327c-0.064,37.565-30.645,68.106-68.226,68.106
			c-18.396,0-35.643-7.212-48.565-20.307c-12.919-13.093-19.899-30.442-19.654-48.852c0.479-35.945,28.949-65.465,64.814-67.209
			c11.558-0.56,23.107,1.808,33.397,6.854c2.838,1.393,6.195,1.224,8.877-0.451c2.683-1.672,4.314-4.61,4.314-7.771V209.254
			c0-5.058-4.101-9.158-9.158-9.158c-5.058,0-9.158,4.101-9.158,9.158v133.309c-9.396-2.809-19.278-4.02-29.161-3.542
			c-45.508,2.213-81.633,39.663-82.241,85.26c-0.31,23.348,8.544,45.352,24.931,61.959C60.815,502.852,82.693,512,106.027,512
			c47.356,0,85.95-38.237,86.537-85.455c0.066-0.442,0.1-0.895,0.1-1.355v-237.87c0-9.063,6.495-16.68,15.443-18.113l211.665-33.886
			c2.784-0.448,5.501,0.315,7.648,2.146s3.329,4.392,3.329,7.213v135.968c-9.387-2.795-19.255-4-29.125-3.512
			c-9.282,0.457-18.372,2.406-27.017,5.792c-4.71,1.845-7.032,7.158-5.187,11.868c1.844,4.709,7.156,7.029,11.868,5.187
			c6.794-2.662,13.94-4.193,21.238-4.552c11.549-0.573,23.081,1.788,33.361,6.81c2.839,1.39,6.192,1.213,8.871-0.459
			c2.679-1.673,4.308-4.61,4.308-7.769V144.679C449.065,136.527,445.507,128.817,439.304,123.529z"/>
	</g>
</g>
<g>
</g>
<g>
</g>
<g>
</g>
<g>
</g>
<g>
</g>
<g>
</g>
<g>
</g>
<g>
</g>
<g>
</g>
<g>
</g>
<g>
</g>
<g>
</g>
<g>
</g>
<g>
</g>
<g>
</g>
</svg>
